{
    "accessors" : [
        {
            "bufferView" : 0, 
            "componentType" : 5121, 
            "count" : 564, 
            "max" : [
                208
            ], 
            "min" : [
                0
            ], 
            "type" : "SCALAR"
        }, 
        {
            "bufferView" : 1, 
            "componentType" : 5126, 
            "count" : 209, 
            "max" : [
                0.8198920488357544, 
                2.0038719177246094, 
                1.965491094324534e-07
            ], 
            "min" : [
                -0.8198920488357544, 
                0.0, 
                -4.266690112331162e-08
            ], 
            "type" : "VEC3"
        }, 
        {
            "bufferView" : 2, 
            "componentType" : 5126, 
            "count" : 209, 
            "max" : [
                7.3612951290158435e-09, 
                6.503308114247375e-09, 
                1.0
            ], 
            "min" : [
                -1.4722543184575443e-08, 
                -3.251660718461835e-09, 
                0.999969482421875
            ], 
            "type" : "VEC3"
        }, 
        {
            "bufferView" : 3, 
            "componentType" : 5123, 
            "count" : 209, 
            "max" : [
                16, 
                16, 
                15, 
                16
            ], 
            "min" : [
                0, 
                0, 
                0, 
                0
            ], 
            "type" : "VEC4"
        }, 
        {
            "bufferView" : 4, 
            "componentType" : 5126, 
            "count" : 209, 
            "max" : [
                1.0, 
                1.0, 
                1.0, 
                0.9886158108711243
            ], 
            "min" : [
                0.0, 
                0.0, 
                0.0, 
                0.0
            ], 
            "type" : "VEC4"
        }, 
        {
            "bufferView" : 5, 
            "componentType" : 5123, 
            "count" : 209, 
            "max" : [
                15, 
                16, 
                13, 
                16
            ], 
            "min" : [
                0, 
                0, 
                0, 
                0
            ], 
            "type" : "VEC4"
        }, 
        {
            "bufferView" : 6, 
            "componentType" : 5126, 
            "count" : 209, 
            "max" : [
                0.0, 
                0.0, 
                0.0, 
                0.0
            ], 
            "min" : [
                0.0, 
                0.0, 
                0.0, 
                0.0
            ], 
            "type" : "VEC4"
        }, 
        {
            "bufferView" : 7, 
            "componentType" : 5123, 
            "count" : 209, 
            "max" : [
                12, 
                15, 
                16, 
                10
            ], 
            "min" : [
                0, 
                0, 
                0, 
                0
            ], 
            "type" : "VEC4"
        }, 
        {
            "bufferView" : 8, 
            "componentType" : 5126, 
            "count" : 209, 
            "max" : [
                0.0, 
                0.0, 
                0.0, 
                0.0
            ], 
            "min" : [
                0.0, 
                0.0, 
                0.0, 
                0.0
            ], 
            "type" : "VEC4"
        }, 
        {
            "bufferView" : 9, 
            "componentType" : 5126, 
            "count" : 17, 
            "max" : [
                1.0, 
                1.0000001192092896, 
                0.6667357087135315, 
                0.0, 
                1.0, 
                1.0, 
                1.0000001192092896, 
                0.0, 
                1.0000003576278687, 
                8.195636524988004e-08, 
                1.0, 
                0.0, 
                0.15187059342861176, 
                0.9233443737030029, 
                1.3276949317742037e-08, 
                1.0
            ], 
            "min" : [
                -1.3322681589457799e-15, 
                -1.0000001192092896, 
                -0.6667094826698303, 
                0.0, 
                -0.059131182730197906, 
                -1.0, 
                0.0, 
                0.0, 
                -1.0, 
                -1.676381344850597e-07, 
                -1.0, 
                0.0, 
                -0.4409891366958618, 
                -1.3805389404296875, 
                -1.1983636617660522, 
                1.0
            ], 
            "type" : "MAT4"
        }
    ], 
    "asset" : {
        "generator" : "Khronos Blender glTF 2.0 exporter", 
        "version" : "2.0"
    }, 
    "bufferViews" : [
        {
            "buffer" : 0, 
            "byteLength" : 564, 
            "byteOffset" : 0, 
            "target" : 34963
        }, 
        {
            "buffer" : 0, 
            "byteLength" : 2508, 
            "byteOffset" : 564, 
            "target" : 34962
        }, 
        {
            "buffer" : 0, 
            "byteLength" : 2508, 
            "byteOffset" : 3072, 
            "target" : 34962
        }, 
        {
            "buffer" : 0, 
            "byteLength" : 1672, 
            "byteOffset" : 5580, 
            "target" : 34962
        }, 
        {
            "buffer" : 0, 
            "byteLength" : 3344, 
            "byteOffset" : 7252, 
            "target" : 34962
        }, 
        {
            "buffer" : 0, 
            "byteLength" : 1672, 
            "byteOffset" : 10596, 
            "target" : 34962
        }, 
        {
            "buffer" : 0, 
            "byteLength" : 3344, 
            "byteOffset" : 12268, 
            "target" : 34962
        }, 
        {
            "buffer" : 0, 
            "byteLength" : 1672, 
            "byteOffset" : 15612, 
            "target" : 34962
        }, 
        {
            "buffer" : 0, 
            "byteLength" : 3344, 
            "byteOffset" : 17284, 
            "target" : 34962
        }, 
        {
            "buffer" : 0, 
            "byteLength" : 1088, 
            "byteOffset" : 20628
        }
    ], 
    "buffers" : [
        {
            "byteLength" : 21716, 
            "uri" : "bendy.bin"
        }
    ], 
    "meshes" : [
        {
            "name" : "BendyMesh", 
            "primitives" : [
                {
                    "attributes" : {
                        "JOINTS_0" : 3, 
                        "JOINTS_1" : 5, 
                        "JOINTS_2" : 7, 
                        "NORMAL" : 2, 
                        "POSITION" : 1, 
                        "WEIGHTS_0" : 4, 
                        "WEIGHTS_1" : 6, 
                        "WEIGHTS_2" : 8
                    }, 
                    "indices" : 0
                }
            ]
        }
    ], 
    "nodes" : [
        {
            "children" : [
                1, 
                2
            ], 
            "name" : "Armature"
        }, 
        {
            "mesh" : 0, 
            "name" : "Bendy", 
            "skin" : 0
        }, 
        {
            "children" : [
                3, 
                13, 
                14, 
                16, 
                17
            ], 
            "name" : "Armature_root"
        }, 
        {
            "children" : [
                4
            ], 
            "name" : "Armature_spine.1", 
            "translation" : [
                0.0, 
                0.4409891366958618, 
                0.0
            ]
        }, 
        {
            "children" : [
                5
            ], 
            "name" : "Armature_spine.2", 
            "translation" : [
                0.0, 
                0.31899386644363403, 
                0.0
            ]
        }, 
        {
            "children" : [
                6, 
                7, 
                10
            ], 
            "name" : "Armature_spine.3", 
            "translation" : [
                0.0, 
                0.31899386644363403, 
                0.0
            ]
        }, 
        {
            "name" : "Armature_head", 
            "translation" : [
                0.0, 
                0.3015620708465576, 
                0.0
            ]
        }, 
        {
            "children" : [
                8
            ], 
            "name" : "Armature_shoulder.R", 
            "rotation" : [
                -0.6709614396095276, 
                -0.2988944351673126, 
                -0.6198590397834778, 
                0.2761297821998596
            ], 
            "scale" : [
                0.9999997019767761, 
                0.9999999403953552, 
                0.9999999403953552
            ], 
            "translation" : [
                0.0, 
                0.3015620708465576, 
                0.0
            ]
        }, 
        {
            "children" : [
                9
            ], 
            "name" : "Armature_upperArm.R", 
            "rotation" : [
                0.35789811611175537, 
                0.03693361580371857, 
                -0.014168869704008102, 
                0.93292236328125
            ], 
            "scale" : [
                0.9999999403953552, 
                1.0, 
                1.0
            ], 
            "translation" : [
                -3.3702596269336027e-09, 
                0.27237969636917114, 
                -6.190055135135708e-10
            ]
        }, 
        {
            "name" : "Armature_lowerArm.R", 
            "rotation" : [
                -4.470348002882929e-08, 
                7.450582373280668e-09, 
                -5.587941664941809e-09, 
                1.0
            ], 
            "translation" : [
                1.7763568394002505e-15, 
                0.3240640461444855, 
                -4.707774081680327e-08
            ]
        }, 
        {
            "children" : [
                11
            ], 
            "name" : "Armature_shoulder.L", 
            "rotation" : [
                -0.6711122989654541, 
                0.2989618480205536, 
                0.6196955442428589, 
                0.27605700492858887
            ], 
            "scale" : [
                1.0000001192092896, 
                1.0, 
                1.0
            ], 
            "translation" : [
                0.0, 
                0.3015620708465576, 
                0.0
            ]
        }, 
        {
            "children" : [
                12
            ], 
            "name" : "Armature_upperArm.L", 
            "rotation" : [
                0.3578948378562927, 
                -0.03716105967760086, 
                0.014255872927606106, 
                0.9329132437705994
            ], 
            "scale" : [
                0.9999999403953552, 
                1.0, 
                0.9999998807907104
            ], 
            "translation" : [
                4.015352494946001e-09, 
                0.27238017320632935, 
                -3.0447992571680516e-08
            ]
        }, 
        {
            "name" : "Armature_lowerArm.L", 
            "rotation" : [
                -3.874302194617485e-07, 
                3.6694109439849854e-07, 
                1.426081068555199e-13, 
                1.0
            ], 
            "translation" : [
                6.294774814244453e-14, 
                0.32406362891197205, 
                -5.037917816252957e-08
            ]
        }, 
        {
            "name" : "Armature_hip.R", 
            "rotation" : [
                0.7071068286895752, 
                0.7071068286895752, 
                5.338508657359853e-08, 
                -5.338508657359853e-08
            ], 
            "translation" : [
                0.0, 
                0.4409891366958618, 
                0.0
            ]
        }, 
        {
            "children" : [
                15
            ], 
            "name" : "Armature_upperLeg.R", 
            "rotation" : [
                1.0, 
                0.0, 
                -4.371138828673793e-08, 
                0.0
            ], 
            "translation" : [
                0.15187059342861176, 
                0.4409891366958618, 
                0.0
            ]
        }, 
        {
            "name" : "Armature_lowerLeg.R", 
            "rotation" : [
                0.0, 
                4.371138828673793e-08, 
                0.0, 
                1.0
            ], 
            "translation" : [
                0.0, 
                0.2204945683479309, 
                0.0
            ]
        }, 
        {
            "name" : "Armature_hip.L", 
            "rotation" : [
                -0.5, 
                0.5, 
                0.4999999701976776, 
                0.4999999701976776
            ], 
            "scale" : [
                1.0, 
                0.9999999403953552, 
                1.0
            ], 
            "translation" : [
                0.0, 
                0.4409891366958618, 
                0.0
            ]
        }, 
        {
            "children" : [
                18
            ], 
            "name" : "Armature_upperLeg.L", 
            "rotation" : [
                1.0, 
                0.0, 
                -4.371138828673793e-08, 
                0.0
            ], 
            "translation" : [
                -0.15187059342861176, 
                0.4409891366958618, 
                0.0
            ]
        }, 
        {
            "name" : "Armature_lowerLeg.L", 
            "rotation" : [
                0.0, 
                4.371138828673793e-08, 
                0.0, 
                1.0
            ], 
            "translation" : [
                0.0, 
                0.2204945683479309, 
                0.0
            ]
        }
    ], 
    "scene" : 0, 
    "scenes" : [
        {
            "name" : "Scene", 
            "nodes" : [
                0
            ]
        }
    ], 
    "skins" : [
        {
            "inverseBindMatrices" : 9, 
            "joints" : [
                2, 
                3, 
                4, 
                5, 
                6, 
                7, 
                8, 
                9, 
                10, 
                11, 
                12, 
                13, 
                14, 
                15, 
                16, 
                17, 
                18
            ], 
            "skeleton" : 0
        }
    ]
}
